<svg width="32" height="32" viewBox="0 0 32 32" fill="none" xmlns="http://www.w3.org/2000/svg">
  <rect width="32" height="32" rx="10" fill="#0f172a"/>
  <path d="M16 2 L17.1 9.1 L20.3 2.7 L19.2 9.8 L24.2 4.7 L20.9 11.1 L27.3 7.8 L22.2 12.8 L29.3 11.7 L22.9 14.9 L30 16 L22.9 17.1 L29.3 20.3 L22.2 19.2 L27.3 24.2 L20.9 20.9 L24.2 27.3 L19.2 22.2 L20.3 29.3 L17.1 22.9 L16 30 L14.9 22.9 L11.7 29.3 L12.8 22.2 L7.8 27.3 L11.1 20.9 L4.7 24.2 L9.8 19.2 L2.7 20.3 L9.1 17.1 L2 16 L9.1 14.9 L2.7 11.7 L9.8 12.8 L4.7 7.8 L11.1 11.1 L7.8 4.7 L12.8 9.8 L11.7 2.7 L14.9 9.1 Z" fill="#38bdf8"/>
</svg>
